<?xml version="1.0" standalone="no"?>
<!DOCTYPE svg PUBLIC "-//W3C//DTD SVG 20010904//EN"
 "http://www.w3.org/TR/2001/REC-SVG-20010904/DTD/svg10.dtd">
<svg version="1.0" xmlns="http://www.w3.org/2000/svg"
 width="816.000000pt" height="816.000000pt" viewBox="0 0 816.000000 816.000000"
 preserveAspectRatio="xMidYMid meet">
<metadata>
Created by potrace 1.14, written by Peter Selinger 2001-2017
</metadata>
<g transform="translate(0.000000,816.000000) scale(0.100000,-0.100000)"
fill="#000000" stroke="none">
<path d="M7511 6923 c-1 -7 -6 -13 -12 -13 -6 0 -16 -6 -23 -12 -7 -7 -34 -31
-61 -53 -26 -22 -55 -47 -64 -55 -9 -9 -47 -43 -86 -75 -38 -33 -75 -64 -81
-70 -6 -5 -29 -25 -52 -43 -23 -19 -52 -44 -65 -55 -13 -12 -45 -40 -71 -62
-26 -22 -55 -47 -64 -56 -10 -8 -44 -37 -76 -65 -33 -27 -71 -60 -85 -73 -14
-13 -43 -37 -65 -55 -21 -17 -46 -38 -55 -46 -9 -9 -45 -40 -81 -70 -36 -30
-70 -59 -76 -65 -10 -9 -61 -52 -124 -105 -14 -12 -47 -41 -75 -65 -27 -24
-84 -72 -125 -106 -41 -35 -77 -66 -80 -69 -3 -3 -34 -30 -70 -60 -36 -30 -78
-67 -95 -81 -16 -15 -147 -127 -290 -249 -143 -122 -284 -243 -314 -268 -29
-26 -64 -56 -78 -67 -14 -11 -39 -32 -56 -48 -36 -32 -71 -42 -267 -73 -19 -3
-53 -9 -75 -14 -22 -5 -56 -11 -75 -15 -19 -3 -46 -8 -60 -10 -40 -8 -73 -15
-100 -20 -43 -8 -63 -13 -135 -30 -38 -9 -81 -19 -95 -21 -14 -3 -56 -13 -95
-24 -38 -11 -81 -21 -95 -24 -27 -6 -146 -39 -170 -48 -16 -6 -259 -87 -275
-92 -15 -4 -45 -17 -95 -38 -25 -11 -49 -21 -55 -22 -17 -5 -67 -26 -122 -52
-28 -13 -55 -24 -60 -24 -4 0 -17 -8 -28 -17 -19 -15 -19 -15 10 -8 17 4 38 8
48 10 9 2 21 6 25 9 5 3 19 7 33 10 44 9 64 14 109 26 25 7 52 13 60 15 8 2
27 8 43 14 15 6 39 13 54 15 14 3 55 14 92 25 164 48 218 63 240 68 14 2 28 6
33 9 5 3 64 21 131 39 114 31 250 69 342 97 22 6 43 13 48 14 4 1 8 2 10 3 2
2 14 5 62 15 6 1 15 4 20 7 6 4 24 10 40 14 17 4 37 9 45 11 31 8 261 73 282
80 20 6 20 5 -4 -17 -14 -13 -47 -42 -73 -64 -58 -49 -140 -119 -180 -154 -17
-14 -75 -64 -130 -111 -55 -47 -102 -87 -105 -90 -3 -3 -50 -43 -105 -90 -55
-47 -111 -95 -125 -107 -14 -12 -35 -30 -46 -40 -12 -10 -46 -39 -75 -64 -187
-161 -233 -199 -241 -199 -4 0 -8 -7 -8 -15 0 -8 -5 -15 -10 -15 -6 0 -25 -13
-43 -29 -49 -43 -139 -121 -193 -168 -27 -23 -60 -51 -74 -63 -14 -12 -45 -38
-69 -58 -24 -21 -56 -48 -71 -62 -15 -14 -47 -41 -71 -61 -24 -20 -64 -54 -88
-75 -24 -22 -53 -47 -65 -57 -46 -38 -131 -113 -146 -127 -9 -8 -38 -33 -65
-55 -28 -21 -52 -42 -55 -45 -3 -3 -36 -32 -75 -65 -38 -33 -75 -64 -81 -70
-6 -5 -37 -32 -69 -60 -32 -27 -66 -57 -74 -65 -9 -8 -43 -37 -76 -65 -33 -27
-65 -54 -71 -60 -6 -5 -37 -32 -69 -60 -32 -27 -64 -56 -71 -63 -16 -15 -26
-10 -90 48 -107 97 -188 237 -220 380 -7 30 -7 187 0 217 54 248 195 461 461
698 50 45 246 189 315 232 100 61 291 164 305 163 7 -1 65 30 65 34 0 2 -18
-3 -41 -10 -22 -8 -48 -16 -57 -18 -9 -1 -24 -6 -32 -9 -8 -3 -28 -9 -45 -13
-16 -4 -32 -8 -35 -9 -3 -1 -25 -7 -50 -14 -25 -6 -52 -15 -60 -18 -8 -3 -19
-7 -25 -8 -5 -2 -37 -11 -70 -21 -33 -10 -62 -18 -65 -19 -12 -2 -132 -39
-215 -65 -133 -42 -199 -62 -210 -65 -5 -1 -17 -5 -25 -8 -8 -3 -96 -31 -195
-62 -235 -75 -375 -121 -570 -190 -88 -32 -182 -65 -210 -75 -77 -27 -344
-134 -408 -164 -32 -14 -59 -26 -61 -26 -6 0 -180 -80 -196 -90 -8 -5 -34 -18
-57 -29 -66 -30 -252 -139 -316 -185 -62 -43 -217 -185 -217 -198 0 -4 -8 -17
-17 -27 -52 -61 -68 -188 -31 -237 60 -80 175 -167 304 -232 80 -40 234 -102
254 -102 9 0 20 -4 26 -8 5 -4 36 -16 69 -26 33 -9 74 -21 90 -26 40 -12 263
-68 295 -74 14 -2 45 -9 70 -15 57 -13 91 -19 160 -31 30 -6 66 -12 80 -15 14
-3 41 -7 60 -10 19 -3 46 -7 60 -10 14 -3 41 -8 60 -10 35 -5 71 -10 133 -20
17 -4 43 -7 57 -9 14 -2 50 -6 80 -10 30 -4 68 -9 83 -12 l28 -6 -34 -26 c-18
-15 -41 -34 -49 -42 -9 -8 -39 -35 -68 -60 -77 -67 -142 -123 -160 -140 -9 -8
-47 -42 -85 -75 -39 -32 -77 -66 -86 -75 -9 -8 -44 -40 -79 -70 -35 -30 -73
-63 -84 -73 -20 -18 -161 -146 -215 -196 -14 -13 -50 -44 -80 -70 -30 -25 -61
-53 -70 -62 -9 -9 -36 -33 -59 -53 -24 -20 -42 -37 -40 -37 1 -1 1489 -2 3305
-3 3136 -1 3302 0 3307 16 2 10 0 20 -5 23 -4 3 -5 16 0 28 5 12 5 31 1 42 -4
11 -5 24 -3 29 3 4 5 42 4 85 -1 42 -2 82 -2 89 0 6 1 36 2 65 1 28 0 57 -1
62 -1 6 -2 15 -1 20 1 6 2 44 1 85 0 41 -1 81 -1 88 0 6 1 36 2 65 1 28 0 57
-1 62 -1 6 -2 15 -1 20 1 6 2 44 1 85 0 41 -1 81 -1 88 0 6 1 36 2 65 1 28 0
57 -1 62 -1 6 -2 15 -1 20 1 6 2 44 1 85 0 41 -1 81 -1 88 0 6 1 36 2 65 1 28
0 57 -1 62 -1 6 -2 15 -1 20 1 6 2 44 1 85 0 41 -1 81 -1 88 0 6 1 36 2 66 1
30 -1 59 -5 64 -3 6 -2 13 3 16 4 3 5 23 1 44 -3 21 -3 47 0 58 4 10 4 29 -1
40 -4 12 -5 25 -2 28 7 7 8 195 0 202 -3 3 -2 18 3 32 4 15 4 37 -1 49 -4 12
-4 25 0 27 5 3 5 23 1 44 -3 21 -3 47 0 58 4 10 4 29 -1 40 -4 12 -5 25 -1 28
8 8 5 103 -3 116 -3 6 -3 10 2 10 4 0 7 19 5 42 -3 51 -3 50 -1 108 0 25 0 50
-1 55 -4 20 -1 87 4 92 2 3 1 15 -4 28 -5 13 -6 26 -3 29 7 7 8 195 0 202 -3
3 -2 18 3 32 4 15 4 37 -1 49 -4 12 -4 25 0 27 5 3 5 23 1 44 -3 21 -3 47 0
58 4 10 4 29 -1 40 -4 12 -5 25 -2 28 4 3 6 38 5 76 -2 72 4 94 38 145 11 17
26 42 32 58 7 15 16 27 20 27 4 0 8 4 8 10 0 5 16 34 35 64 19 30 35 59 35 65
0 5 3 11 8 13 4 2 34 48 67 103 33 55 65 109 72 120 7 11 15 27 19 35 4 8 20
34 36 57 15 23 28 46 28 52 0 6 5 11 12 11 6 0 8 3 5 6 -3 4 3 18 13 32 11 14
18 27 16 29 -2 3 -41 -3 -85 -12 -45 -9 -94 -18 -109 -21 -15 -3 -35 -7 -44
-10 -10 -3 -30 -7 -45 -10 -16 -3 -55 -11 -88 -19 -33 -7 -62 -12 -66 -9 -11
6 -16 49 -9 70 4 10 4 28 0 40 -5 11 -5 26 0 33 4 7 4 28 0 47 -4 19 -5 34 -1
34 3 0 6 18 6 40 0 22 -4 40 -8 40 -5 0 -5 5 -1 11 6 10 9 111 4 134 -1 6 -1
15 0 20 4 23 1 115 -4 124 -4 5 -2 12 3 15 4 3 5 23 1 44 -3 21 -3 47 0 58 4
10 4 29 -1 40 -4 12 -5 25 -1 28 8 8 5 103 -3 116 -3 6 -3 10 2 10 4 0 7 19 5
42 -3 51 -3 50 -1 108 0 25 0 50 -1 55 -4 20 -1 87 4 92 2 3 1 15 -4 28 -5 13
-6 26 -3 29 8 8 7 195 0 203 -4 3 -3 11 1 17 5 6 5 22 1 36 -4 14 -7 19 -8 13z"/>
</g>
</svg>
