<svg width="51" height="36" viewBox="0 0 51 36" fill="none" xmlns="http://www.w3.org/2000/svg">
<path d="M5.66406 35.8385H47.0034V0.162109C3.96519 36.9711 10.1944 31.8745 5.66406 35.8385Z" fill="#00858A"/>
<path d="M46.437 14.8856L49.8347 9.22266L33.4122 12.6204C37.9426 12.6204 41.9066 13.1867 46.437 14.8856ZM20.9538 16.0182C25.4841 13.753 30.5808 13.1867 33.4122 12.6204C32.8459 12.6204 21.5201 16.0182 20.9538 16.0182ZM20.9538 16.0182C16.9898 17.717 13.0257 21.1148 13.592 24.5125C14.1583 27.344 17.5561 29.0429 23.219 30.1755C23.7853 30.1755 23.219 30.7418 23.219 30.7418C18.6886 30.1755 2.83246 29.6092 0.567287 25.6451C0.000994861 22.2474 11.3268 18.8496 20.9538 16.0182Z" fill="#D7B56D"/>
<path d="M35.1116 21.1152V23.3804C36.2442 25.0793 39.0756 30.7422 35.1116 30.7422V33.0074C40.7745 33.0074 39.6419 27.3444 37.943 23.3804H41.3408V33.0074H43.606V21.1152H35.1116ZM34.5453 23.3804V21.1152H26.6172V33.0074H33.4127C34.5453 33.0074 34.5453 31.3085 34.5453 30.1759C34.5453 29.0433 33.4127 25.6456 32.8464 25.6456H30.5812C30.5812 26.7782 32.8464 29.6096 31.7138 30.7422H28.8824V23.3804H34.5453Z" fill="#FEFEFE"/>
</svg>
