<svg width="198" height="36" viewBox="0 0 198 36" fill="none" xmlns="http://www.w3.org/2000/svg">
<path d="M5.66284 35.8381H47.0022V0.161743C3.96397 36.9707 10.1932 31.8741 5.66284 35.8381Z" fill="#00858A"/>
<path d="M46.436 14.8853L49.8337 9.22241L33.4113 12.6202C37.9416 12.6202 41.9056 13.1865 46.436 14.8853ZM20.9528 16.0179C25.4832 13.7527 30.5798 13.1865 33.4113 12.6202C32.845 12.6202 21.5191 16.0179 20.9528 16.0179ZM20.9528 16.0179C16.9888 17.7168 13.0247 21.1145 13.591 24.5123C14.1573 27.3438 17.5551 29.0426 23.218 30.1752C23.7843 30.1752 23.218 30.7415 23.218 30.7415C18.6877 30.1752 2.83148 29.6089 0.56631 25.6449C1.82986e-05 22.2471 11.3259 18.8494 20.9528 16.0179Z" fill="#D7B56D"/>
<path d="M35.1101 21.1146V23.3798C36.2427 25.0787 39.0741 30.7416 35.1101 30.7416V33.0068C40.773 33.0068 39.6404 27.3438 37.9416 23.3798H41.3393V33.0068H43.6045V21.1146H35.1101ZM34.5438 23.3798V21.1146H26.6157V33.0068H33.4112C34.5438 33.0068 34.5438 31.3079 34.5438 30.1753C34.5438 29.0427 33.4112 25.645 32.8449 25.645H30.5798C30.5798 26.7775 32.8449 29.609 31.7124 30.7416H28.8809V23.3798H34.5438Z" fill="#FEFEFE"/>
<path d="M66.8257 7.96484V9.44824H62.2729V17.918H60.3999V7.96484H66.8257ZM61.6646 11.6904H64.0776C64.8478 11.6904 65.5086 11.8203 66.0601 12.0801C66.6115 12.3353 67.033 12.693 67.3247 13.1533C67.6209 13.6136 67.769 14.1536 67.769 14.7734C67.769 15.2383 67.6847 15.6621 67.5161 16.0449C67.3521 16.4277 67.1105 16.7604 66.7915 17.043C66.4725 17.321 66.0851 17.5374 65.6294 17.6924C65.1737 17.8428 64.6564 17.918 64.0776 17.918H60.3999V7.96484H62.2866V16.4414H64.0776C64.4878 16.4414 64.8273 16.3639 65.0962 16.209C65.3651 16.054 65.5656 15.849 65.6978 15.5938C65.8299 15.3385 65.896 15.0605 65.896 14.7598C65.896 14.4635 65.8299 14.1947 65.6978 13.9531C65.5656 13.7116 65.3651 13.5202 65.0962 13.3789C64.8273 13.2376 64.4878 13.167 64.0776 13.167H61.6646V11.6904Z" fill="black"/>
<path d="M73.1489 16.3457V12.9346C73.1489 12.6839 73.1056 12.4674 73.019 12.2852C72.9325 12.1029 72.8003 11.9616 72.6226 11.8613C72.4448 11.7611 72.2192 11.7109 71.9458 11.7109C71.7043 11.7109 71.4924 11.752 71.3101 11.834C71.1323 11.916 70.9956 12.0322 70.8999 12.1826C70.8042 12.3285 70.7563 12.4971 70.7563 12.6885H68.9448C68.9448 12.3831 69.0177 12.0938 69.1636 11.8203C69.3094 11.5423 69.5168 11.2962 69.7856 11.082C70.0591 10.8633 70.3849 10.6924 70.7632 10.5693C71.146 10.4463 71.5744 10.3848 72.0483 10.3848C72.6089 10.3848 73.1079 10.4805 73.5454 10.6719C73.9875 10.8587 74.3338 11.1413 74.5845 11.5195C74.8397 11.8978 74.9673 12.374 74.9673 12.9482V16.1748C74.9673 16.5439 74.9901 16.8607 75.0356 17.125C75.0858 17.3848 75.1587 17.6104 75.2544 17.8018V17.918H73.4155C73.3289 17.7311 73.2629 17.4941 73.2173 17.207C73.1717 16.9154 73.1489 16.6283 73.1489 16.3457ZM73.4019 13.4131L73.4155 14.4863H72.2739C71.9914 14.4863 71.743 14.516 71.5288 14.5752C71.3146 14.6299 71.1392 14.7119 71.0024 14.8213C70.8657 14.9261 70.7632 15.0537 70.6948 15.2041C70.6265 15.3499 70.5923 15.5163 70.5923 15.7031C70.5923 15.8854 70.6333 16.0495 70.7153 16.1953C70.8019 16.3411 70.925 16.4574 71.0845 16.5439C71.2485 16.626 71.4399 16.667 71.6587 16.667C71.9777 16.667 72.2557 16.6032 72.4927 16.4756C72.7297 16.3434 72.9142 16.1839 73.0464 15.9971C73.1785 15.8102 73.2492 15.6325 73.2583 15.4639L73.7778 16.2432C73.714 16.43 73.6183 16.6283 73.4907 16.8379C73.3631 17.0475 73.1991 17.2435 72.9985 17.4258C72.798 17.6081 72.5565 17.7585 72.2739 17.877C71.9914 17.9954 71.6632 18.0547 71.2896 18.0547C70.811 18.0547 70.3826 17.959 70.0044 17.7676C69.6261 17.5762 69.3276 17.3141 69.1089 16.9814C68.8901 16.6488 68.7808 16.2705 68.7808 15.8467C68.7808 15.4548 68.8537 15.1084 68.9995 14.8076C69.1453 14.5068 69.3618 14.2539 69.6489 14.0488C69.936 13.8392 70.2915 13.682 70.7153 13.5771C71.1437 13.4678 71.6336 13.4131 72.1851 13.4131H73.4019Z" fill="black"/>
<path d="M81.646 13.5566V14.9717H77.8521V13.5566H81.646ZM78.4194 10.5215V17.918H76.6079V10.5215H78.4194ZM82.9106 10.5215V17.918H81.0923V10.5215H82.9106Z" fill="black"/>
<path d="M86.479 10.5215V17.918H84.6743V10.5215H86.479ZM91.2983 10.5215L88.0376 15.0605H86.1167L85.8911 13.4062H87.2241L89.022 10.5215H91.2983ZM89.1313 17.918L87.1079 14.7461L88.6118 13.8027L91.5308 17.918H89.1313Z" fill="black"/>
<path d="M102.564 7.96484V9.44824H97.7036V7.96484H102.564ZM103.952 7.96484V17.918H102.065V7.96484H103.952ZM97.4028 7.96484H99.2759L99.0298 12.9346C98.9933 13.6683 98.9272 14.3109 98.8315 14.8623C98.7358 15.4137 98.606 15.8854 98.4419 16.2773C98.2778 16.6647 98.0728 16.9792 97.8267 17.2207C97.5806 17.4622 97.2889 17.64 96.9517 17.7539C96.619 17.8633 96.2316 17.918 95.7896 17.918H95.3179V16.4414L95.5845 16.4141C95.8169 16.3958 96.0174 16.3389 96.186 16.2432C96.3592 16.1475 96.5073 16.0039 96.6304 15.8125C96.7534 15.6165 96.8537 15.3659 96.9312 15.0605C97.0132 14.7552 97.077 14.3838 97.1226 13.9463C97.1727 13.5088 97.2091 12.9961 97.2319 12.4082L97.4028 7.96484Z" fill="black"/>
<path d="M109.065 18.0547C108.504 18.0547 108.001 17.9635 107.554 17.7812C107.108 17.599 106.727 17.346 106.413 17.0225C106.103 16.6943 105.863 16.3138 105.695 15.8809C105.531 15.4434 105.449 14.974 105.449 14.4727V14.1992C105.449 13.6296 105.531 13.1123 105.695 12.6475C105.859 12.1781 106.091 11.7747 106.392 11.4375C106.693 11.1003 107.053 10.8405 107.472 10.6582C107.891 10.4759 108.354 10.3848 108.86 10.3848C109.384 10.3848 109.847 10.4736 110.248 10.6514C110.649 10.8245 110.984 11.0706 111.252 11.3896C111.521 11.7087 111.724 12.0915 111.861 12.5381C111.998 12.9801 112.066 13.4701 112.066 14.0078V14.7666H106.269V13.5225H110.289V13.3857C110.279 13.0986 110.225 12.8366 110.125 12.5996C110.024 12.3581 109.869 12.1667 109.66 12.0254C109.45 11.8796 109.179 11.8066 108.846 11.8066C108.577 11.8066 108.343 11.8659 108.142 11.9844C107.946 12.0983 107.782 12.2624 107.65 12.4766C107.522 12.6862 107.427 12.9368 107.363 13.2285C107.299 13.5202 107.267 13.8438 107.267 14.1992V14.4727C107.267 14.7826 107.308 15.0697 107.39 15.334C107.477 15.5983 107.602 15.8285 107.766 16.0244C107.935 16.2158 108.135 16.3662 108.368 16.4756C108.605 16.5804 108.874 16.6328 109.174 16.6328C109.553 16.6328 109.894 16.5599 110.2 16.4141C110.51 16.2637 110.778 16.0426 111.006 15.751L111.916 16.6943C111.761 16.9222 111.551 17.141 111.287 17.3506C111.027 17.5602 110.712 17.7311 110.343 17.8633C109.974 17.9909 109.548 18.0547 109.065 18.0547Z" fill="black"/>
<path d="M116.913 14.7871H114.568L114.554 13.5635H116.482C116.769 13.5635 117.004 13.5339 117.186 13.4746C117.368 13.4154 117.503 13.3265 117.589 13.208C117.681 13.0895 117.726 12.946 117.726 12.7773C117.726 12.6315 117.699 12.5062 117.644 12.4014C117.589 12.292 117.507 12.2031 117.398 12.1348C117.293 12.0664 117.159 12.0163 116.995 11.9844C116.835 11.9479 116.648 11.9297 116.434 11.9297H115.21V17.918H113.399V10.5215H116.434C116.913 10.5215 117.343 10.5648 117.726 10.6514C118.109 10.7334 118.435 10.8587 118.704 11.0273C118.972 11.196 119.178 11.4102 119.319 11.6699C119.465 11.9251 119.538 12.2259 119.538 12.5723C119.538 12.8001 119.487 13.0143 119.387 13.2148C119.287 13.4154 119.139 13.5931 118.943 13.748C118.747 13.903 118.505 14.0306 118.218 14.1309C117.931 14.2266 117.603 14.2858 117.234 14.3086L116.913 14.7871ZM116.913 17.918H114.083L114.752 16.5098H116.913C117.177 16.5098 117.396 16.4779 117.569 16.4141C117.742 16.3457 117.87 16.2477 117.952 16.1201C118.038 15.9925 118.082 15.8376 118.082 15.6553C118.082 15.4775 118.041 15.3249 117.958 15.1973C117.881 15.0651 117.756 14.9648 117.583 14.8965C117.414 14.8236 117.191 14.7871 116.913 14.7871H115.046L115.06 13.5635H117.227L117.706 14.0488C118.198 14.0807 118.606 14.181 118.929 14.3496C119.253 14.5137 119.494 14.7233 119.654 14.9785C119.813 15.2292 119.893 15.5049 119.893 15.8057C119.893 16.1566 119.827 16.4642 119.695 16.7285C119.563 16.9928 119.369 17.2139 119.114 17.3916C118.859 17.5648 118.546 17.6969 118.177 17.7881C117.808 17.8747 117.387 17.918 116.913 17.918Z" fill="black"/>
<path d="M120.884 14.2949V14.1514C120.884 13.609 120.962 13.11 121.117 12.6543C121.272 12.194 121.497 11.7952 121.793 11.458C122.09 11.1208 122.452 10.8587 122.88 10.6719C123.309 10.4805 123.796 10.3848 124.343 10.3848C124.899 10.3848 125.391 10.4805 125.82 10.6719C126.253 10.8587 126.617 11.1208 126.914 11.458C127.21 11.7952 127.435 12.194 127.59 12.6543C127.745 13.11 127.823 13.609 127.823 14.1514V14.2949C127.823 14.8327 127.745 15.3317 127.59 15.792C127.435 16.2477 127.21 16.6465 126.914 16.9883C126.617 17.3255 126.255 17.5876 125.827 17.7744C125.398 17.9613 124.908 18.0547 124.357 18.0547C123.81 18.0547 123.32 17.9613 122.887 17.7744C122.454 17.5876 122.09 17.3255 121.793 16.9883C121.497 16.6465 121.272 16.2477 121.117 15.792C120.962 15.3317 120.884 14.8327 120.884 14.2949ZM122.689 14.1514V14.2949C122.689 14.6185 122.721 14.9215 122.785 15.2041C122.848 15.4867 122.946 15.735 123.079 15.9492C123.211 16.1634 123.382 16.332 123.591 16.4551C123.806 16.5736 124.061 16.6328 124.357 16.6328C124.649 16.6328 124.899 16.5736 125.109 16.4551C125.319 16.332 125.489 16.1634 125.622 15.9492C125.758 15.735 125.859 15.4867 125.922 15.2041C125.986 14.9215 126.018 14.6185 126.018 14.2949V14.1514C126.018 13.8324 125.986 13.5339 125.922 13.2559C125.859 12.9733 125.758 12.7249 125.622 12.5107C125.489 12.292 125.316 12.1211 125.102 11.998C124.892 11.8704 124.639 11.8066 124.343 11.8066C124.052 11.8066 123.801 11.8704 123.591 11.998C123.382 12.1211 123.211 12.292 123.079 12.5107C122.946 12.7249 122.848 12.9733 122.785 13.2559C122.721 13.5339 122.689 13.8324 122.689 14.1514Z" fill="black"/>
<path d="M133.715 7.27441H135.178C135.178 7.66178 135.128 7.98763 135.028 8.25195C134.928 8.51172 134.773 8.73047 134.563 8.9082C134.353 9.08138 134.084 9.22493 133.756 9.33887C133.428 9.4528 133.036 9.55306 132.581 9.63965C132.198 9.71712 131.861 9.84473 131.569 10.0225C131.277 10.2002 131.033 10.444 130.837 10.7539C130.646 11.0638 130.507 11.458 130.42 11.9365C130.334 12.415 130.306 12.9915 130.338 13.666V14.0625L128.923 14.2266V13.8301C128.923 12.9505 129.003 12.1849 129.163 11.5332C129.322 10.877 129.548 10.3255 129.839 9.87891C130.131 9.42773 130.48 9.06999 130.885 8.80566C131.295 8.53678 131.753 8.34766 132.259 8.23828C132.597 8.16992 132.872 8.09928 133.086 8.02637C133.305 7.95345 133.465 7.86003 133.565 7.74609C133.665 7.6276 133.715 7.47038 133.715 7.27441ZM132.704 10.9385C133.2 10.9385 133.64 11.0251 134.023 11.1982C134.41 11.3669 134.736 11.6061 135 11.916C135.265 12.2214 135.465 12.5837 135.602 13.0029C135.743 13.4176 135.814 13.8711 135.814 14.3633V14.5068C135.814 15.0173 135.736 15.4889 135.582 15.9219C135.431 16.3548 135.21 16.7308 134.918 17.0498C134.627 17.3688 134.267 17.6172 133.838 17.7949C133.41 17.9727 132.92 18.0615 132.369 18.0615C131.822 18.0615 131.334 17.9681 130.906 17.7812C130.477 17.5898 130.115 17.3255 129.819 16.9883C129.523 16.651 129.299 16.2546 129.149 15.7988C128.999 15.3385 128.923 14.8372 128.923 14.2949V14.1514C128.919 14.0602 128.948 13.9736 129.012 13.8916C129.076 13.8096 129.151 13.7184 129.238 13.6182C129.329 13.5179 129.411 13.3971 129.484 13.2559C129.735 12.7728 130.017 12.3581 130.332 12.0117C130.651 11.6654 131.006 11.401 131.398 11.2188C131.79 11.0319 132.225 10.9385 132.704 10.9385ZM132.355 12.3604C131.968 12.3604 131.653 12.4538 131.412 12.6406C131.175 12.8229 131.001 13.0667 130.892 13.3721C130.783 13.6729 130.728 14.0033 130.728 14.3633V14.5068C130.728 14.7985 130.758 15.0742 130.817 15.334C130.881 15.5892 130.976 15.8148 131.104 16.0107C131.232 16.2067 131.4 16.3617 131.61 16.4756C131.819 16.585 132.072 16.6396 132.369 16.6396C132.665 16.6396 132.916 16.585 133.121 16.4756C133.33 16.3617 133.499 16.2067 133.626 16.0107C133.754 15.8148 133.847 15.5892 133.907 15.334C133.971 15.0742 134.002 14.7985 134.002 14.5068V14.3633C134.002 14.0944 133.971 13.8392 133.907 13.5977C133.847 13.3561 133.754 13.1442 133.626 12.9619C133.499 12.7751 133.328 12.6292 133.114 12.5244C132.904 12.415 132.651 12.3604 132.355 12.3604Z" fill="black"/>
<path d="M140.387 18.0547C139.827 18.0547 139.323 17.9635 138.876 17.7812C138.43 17.599 138.049 17.346 137.735 17.0225C137.425 16.6943 137.186 16.3138 137.017 15.8809C136.853 15.4434 136.771 14.974 136.771 14.4727V14.1992C136.771 13.6296 136.853 13.1123 137.017 12.6475C137.181 12.1781 137.414 11.7747 137.714 11.4375C138.015 11.1003 138.375 10.8405 138.794 10.6582C139.214 10.4759 139.676 10.3848 140.182 10.3848C140.706 10.3848 141.169 10.4736 141.57 10.6514C141.971 10.8245 142.306 11.0706 142.575 11.3896C142.844 11.7087 143.046 12.0915 143.183 12.5381C143.32 12.9801 143.388 13.4701 143.388 14.0078V14.7666H137.591V13.5225H141.611V13.3857C141.602 13.0986 141.547 12.8366 141.447 12.5996C141.347 12.3581 141.192 12.1667 140.982 12.0254C140.772 11.8796 140.501 11.8066 140.168 11.8066C139.9 11.8066 139.665 11.8659 139.464 11.9844C139.268 12.0983 139.104 12.2624 138.972 12.4766C138.845 12.6862 138.749 12.9368 138.685 13.2285C138.621 13.5202 138.589 13.8438 138.589 14.1992V14.4727C138.589 14.7826 138.63 15.0697 138.712 15.334C138.799 15.5983 138.924 15.8285 139.088 16.0244C139.257 16.2158 139.458 16.3662 139.69 16.4756C139.927 16.5804 140.196 16.6328 140.497 16.6328C140.875 16.6328 141.217 16.5599 141.522 16.4141C141.832 16.2637 142.101 16.0426 142.329 15.751L143.238 16.6943C143.083 16.9222 142.873 17.141 142.609 17.3506C142.349 17.5602 142.035 17.7311 141.666 17.8633C141.296 17.9909 140.87 18.0547 140.387 18.0547Z" fill="black"/>
<path d="M146.403 11.9434V20.7617H144.591V10.5215H146.266L146.403 11.9434ZM151.154 14.1445V14.2881C151.154 14.8258 151.09 15.3249 150.962 15.7852C150.839 16.2409 150.657 16.6396 150.416 16.9814C150.174 17.3187 149.873 17.583 149.513 17.7744C149.158 17.9613 148.748 18.0547 148.283 18.0547C147.827 18.0547 147.431 17.9681 147.093 17.7949C146.756 17.6172 146.471 17.3665 146.239 17.043C146.006 16.7194 145.819 16.3434 145.678 15.915C145.542 15.4821 145.439 15.0104 145.371 14.5V14.042C145.439 13.4997 145.542 13.0075 145.678 12.5654C145.819 12.1188 146.006 11.7337 146.239 11.4102C146.471 11.082 146.754 10.8291 147.086 10.6514C147.424 10.4736 147.818 10.3848 148.269 10.3848C148.738 10.3848 149.151 10.4736 149.506 10.6514C149.866 10.8291 150.169 11.0843 150.416 11.417C150.662 11.7497 150.846 12.1462 150.969 12.6064C151.092 13.0667 151.154 13.5794 151.154 14.1445ZM149.342 14.2881V14.1445C149.342 13.8164 149.313 13.5133 149.253 13.2354C149.194 12.9528 149.103 12.7067 148.98 12.4971C148.857 12.2829 148.697 12.1165 148.501 11.998C148.306 11.8796 148.069 11.8203 147.791 11.8203C147.513 11.8203 147.273 11.8659 147.073 11.957C146.872 12.0482 146.708 12.1781 146.581 12.3467C146.453 12.5153 146.353 12.7158 146.28 12.9482C146.211 13.1761 146.166 13.429 146.143 13.707V14.8418C146.184 15.179 146.264 15.4821 146.382 15.751C146.501 16.0199 146.674 16.234 146.902 16.3936C147.134 16.5531 147.435 16.6328 147.804 16.6328C148.082 16.6328 148.319 16.5713 148.515 16.4482C148.711 16.3252 148.871 16.1566 148.994 15.9424C149.117 15.7236 149.206 15.473 149.26 15.1904C149.315 14.9079 149.342 14.6071 149.342 14.2881Z" fill="black"/>
<path d="M155.795 18.0547C155.235 18.0547 154.731 17.9635 154.285 17.7812C153.838 17.599 153.458 17.346 153.143 17.0225C152.833 16.6943 152.594 16.3138 152.425 15.8809C152.261 15.4434 152.179 14.974 152.179 14.4727V14.1992C152.179 13.6296 152.261 13.1123 152.425 12.6475C152.589 12.1781 152.822 11.7747 153.123 11.4375C153.423 11.1003 153.783 10.8405 154.203 10.6582C154.622 10.4759 155.084 10.3848 155.59 10.3848C156.114 10.3848 156.577 10.4736 156.978 10.6514C157.379 10.8245 157.714 11.0706 157.983 11.3896C158.252 11.7087 158.455 12.0915 158.591 12.5381C158.728 12.9801 158.796 13.4701 158.796 14.0078V14.7666H153V13.5225H157.019V13.3857C157.01 13.0986 156.955 12.8366 156.855 12.5996C156.755 12.3581 156.6 12.1667 156.39 12.0254C156.181 11.8796 155.909 11.8066 155.577 11.8066C155.308 11.8066 155.073 11.8659 154.873 11.9844C154.677 12.0983 154.513 12.2624 154.38 12.4766C154.253 12.6862 154.157 12.9368 154.093 13.2285C154.029 13.5202 153.998 13.8438 153.998 14.1992V14.4727C153.998 14.7826 154.039 15.0697 154.121 15.334C154.207 15.5983 154.333 15.8285 154.497 16.0244C154.665 16.2158 154.866 16.3662 155.098 16.4756C155.335 16.5804 155.604 16.6328 155.905 16.6328C156.283 16.6328 156.625 16.5599 156.93 16.4141C157.24 16.2637 157.509 16.0426 157.737 15.751L158.646 16.6943C158.491 16.9222 158.281 17.141 158.017 17.3506C157.757 17.5602 157.443 17.7311 157.074 17.8633C156.705 17.9909 156.278 18.0547 155.795 18.0547Z" fill="black"/>
<path d="M162.529 15.0332L159.521 10.5215H161.75L163.397 13.3721H164.826L164.6 15.0332H162.529ZM163.431 14.7461L161.64 17.918H159.446L162.009 13.8027L163.431 14.7461ZM165.96 10.5215V17.918H164.156V10.5215H165.96ZM170.616 10.5215L167.601 15.0332H165.53L165.304 13.3721H166.733L168.38 10.5215H170.616ZM168.49 17.918L166.699 14.7461L168.168 13.8027L170.725 17.918H168.49Z" fill="black"/>
<path d="M176.775 13.5566V14.9717H172.981V13.5566H176.775ZM173.548 10.5215V17.918H171.737V10.5215H173.548ZM178.04 10.5215V17.918H176.221V10.5215H178.04Z" fill="black"/>
<path d="M180.965 12.7979H183.125C183.782 12.7979 184.34 12.9072 184.8 13.126C185.265 13.3402 185.618 13.641 185.86 14.0283C186.106 14.4111 186.229 14.8555 186.229 15.3613C186.229 15.7259 186.158 16.0654 186.017 16.3799C185.88 16.6898 185.68 16.9609 185.416 17.1934C185.151 17.4212 184.825 17.599 184.438 17.7266C184.055 17.8542 183.618 17.918 183.125 17.918H179.803V10.5215H181.615V16.5029H183.125C183.44 16.5029 183.691 16.4505 183.877 16.3457C184.069 16.2363 184.206 16.0973 184.288 15.9287C184.374 15.7555 184.417 15.571 184.417 15.375C184.417 15.1745 184.374 14.9876 184.288 14.8145C184.206 14.6367 184.069 14.4932 183.877 14.3838C183.691 14.2744 183.44 14.2197 183.125 14.2197H180.965V12.7979ZM189.264 10.5215V17.918H187.453V10.5215H189.264Z" fill="black"/>
<path d="M192.935 15.3408L195.628 10.5215H197.44V17.918H195.628V13.0918L192.935 17.918H191.124V10.5215H192.935V15.3408ZM195.293 7.61621H196.606C196.606 7.99902 196.513 8.33854 196.326 8.63477C196.139 8.93099 195.872 9.16341 195.526 9.33203C195.184 9.49609 194.778 9.57812 194.309 9.57812C193.603 9.57812 193.042 9.39583 192.627 9.03125C192.213 8.66667 192.005 8.19499 192.005 7.61621H193.318C193.318 7.85775 193.393 8.07422 193.543 8.26562C193.694 8.45703 193.949 8.55273 194.309 8.55273C194.669 8.55273 194.922 8.45703 195.068 8.26562C195.218 8.07422 195.293 7.85775 195.293 7.61621Z" fill="black"/>
<path d="M66.1177 30.1895V30.6387C66.1177 31.1725 66.0509 31.651 65.9175 32.0742C65.784 32.4974 65.592 32.8571 65.3413 33.1533C65.0907 33.4495 64.7896 33.6758 64.438 33.832C64.0897 33.9883 63.6991 34.0664 63.2661 34.0664C62.8462 34.0664 62.4604 33.9883 62.1089 33.832C61.7606 33.6758 61.4578 33.4495 61.2007 33.1533C60.9468 32.8571 60.7498 32.4974 60.6099 32.0742C60.4699 31.651 60.3999 31.1725 60.3999 30.6387V30.1895C60.3999 29.6556 60.4683 29.1787 60.605 28.7588C60.745 28.3356 60.9419 27.9759 61.1958 27.6797C61.4497 27.3802 61.7508 27.1523 62.0991 26.9961C62.4507 26.8398 62.8364 26.7617 63.2563 26.7617C63.6893 26.7617 64.0799 26.8398 64.4282 26.9961C64.7798 27.1523 65.0809 27.3802 65.3315 27.6797C65.5854 27.9759 65.7791 28.3356 65.9126 28.7588C66.0493 29.1787 66.1177 29.6556 66.1177 30.1895ZM65.1851 30.6387V30.1797C65.1851 29.7565 65.1411 29.3822 65.0532 29.0566C64.9686 28.7311 64.8433 28.4577 64.6772 28.2363C64.5112 28.015 64.3078 27.8473 64.0669 27.7334C63.8293 27.6195 63.5591 27.5625 63.2563 27.5625C62.9634 27.5625 62.6981 27.6195 62.4604 27.7334C62.2261 27.8473 62.0243 28.015 61.855 28.2363C61.689 28.4577 61.5604 28.7311 61.4692 29.0566C61.3781 29.3822 61.3325 29.7565 61.3325 30.1797V30.6387C61.3325 31.0651 61.3781 31.4427 61.4692 31.7715C61.5604 32.097 61.6906 32.3721 61.8599 32.5967C62.0324 32.818 62.2358 32.9857 62.4702 33.0996C62.7078 33.2135 62.9731 33.2705 63.2661 33.2705C63.5721 33.2705 63.8439 33.2135 64.0815 33.0996C64.3192 32.9857 64.5194 32.818 64.6821 32.5967C64.8481 32.3721 64.9735 32.097 65.0581 31.7715C65.1427 31.4427 65.1851 31.0651 65.1851 30.6387Z" fill="black"/>
<path d="M69.5063 33.3242C69.7212 33.3242 69.9198 33.2803 70.1021 33.1924C70.2843 33.1045 70.4341 32.984 70.5513 32.8311C70.6685 32.6748 70.7352 32.4974 70.7515 32.2988H71.6108C71.5946 32.6113 71.4888 32.9027 71.2935 33.1729C71.1014 33.4398 70.8491 33.6562 70.5366 33.8223C70.2241 33.985 69.8807 34.0664 69.5063 34.0664C69.1092 34.0664 68.7625 33.9964 68.4663 33.8564C68.1733 33.7165 67.9292 33.5244 67.7339 33.2803C67.5418 33.0361 67.397 32.7562 67.2993 32.4404C67.2049 32.1214 67.1577 31.7845 67.1577 31.4297V31.2246C67.1577 30.8698 67.2049 30.5345 67.2993 30.2188C67.397 29.8997 67.5418 29.6182 67.7339 29.374C67.9292 29.1299 68.1733 28.9378 68.4663 28.7979C68.7625 28.6579 69.1092 28.5879 69.5063 28.5879C69.9198 28.5879 70.2811 28.6725 70.5903 28.8418C70.8996 29.0078 71.1421 29.2357 71.3179 29.5254C71.4969 29.8118 71.5946 30.1374 71.6108 30.502H70.7515C70.7352 30.2839 70.6733 30.0869 70.5659 29.9111C70.4618 29.7354 70.3185 29.5954 70.1362 29.4912C69.9572 29.3838 69.7472 29.3301 69.5063 29.3301C69.2297 29.3301 68.9969 29.3854 68.8081 29.4961C68.6226 29.6035 68.4744 29.75 68.3638 29.9355C68.2563 30.1178 68.1782 30.3213 68.1294 30.5459C68.0838 30.7673 68.061 30.9935 68.061 31.2246V31.4297C68.061 31.6608 68.0838 31.8887 68.1294 32.1133C68.175 32.3379 68.2515 32.5413 68.3589 32.7236C68.4696 32.9059 68.6177 33.0524 68.8032 33.1631C68.992 33.2705 69.2264 33.3242 69.5063 33.3242Z" fill="black"/>
<path d="M76.2104 30.9756V31.708H73.4175V30.9756H76.2104ZM73.6079 28.6855V33.9688H72.7046V28.6855H73.6079ZM76.9429 28.6855V33.9688H76.0347V28.6855H76.9429Z" fill="black"/>
<path d="M78.1587 31.3857V31.2734C78.1587 30.8926 78.214 30.5394 78.3247 30.2139C78.4354 29.8851 78.5949 29.6003 78.8032 29.3594C79.0116 29.1152 79.2638 28.9264 79.5601 28.793C79.8563 28.6562 80.1883 28.5879 80.5562 28.5879C80.9272 28.5879 81.2609 28.6562 81.5571 28.793C81.8566 28.9264 82.1105 29.1152 82.3188 29.3594C82.5304 29.6003 82.6916 29.8851 82.8022 30.2139C82.9129 30.5394 82.9683 30.8926 82.9683 31.2734V31.3857C82.9683 31.7666 82.9129 32.1198 82.8022 32.4453C82.6916 32.7708 82.5304 33.0557 82.3188 33.2998C82.1105 33.5407 81.8582 33.7295 81.562 33.8662C81.269 33.9997 80.937 34.0664 80.5659 34.0664C80.1948 34.0664 79.8612 33.9997 79.5649 33.8662C79.2687 33.7295 79.0148 33.5407 78.8032 33.2998C78.5949 33.0557 78.4354 32.7708 78.3247 32.4453C78.214 32.1198 78.1587 31.7666 78.1587 31.3857ZM79.062 31.2734V31.3857C79.062 31.6494 79.0929 31.8984 79.1548 32.1328C79.2166 32.3639 79.3094 32.569 79.4331 32.748C79.5601 32.9271 79.7179 33.0687 79.9067 33.1729C80.0955 33.2738 80.3153 33.3242 80.5659 33.3242C80.8133 33.3242 81.0298 33.2738 81.2153 33.1729C81.4041 33.0687 81.5604 32.9271 81.6841 32.748C81.8078 32.569 81.9006 32.3639 81.9624 32.1328C82.0275 31.8984 82.0601 31.6494 82.0601 31.3857V31.2734C82.0601 31.013 82.0275 30.7673 81.9624 30.5361C81.9006 30.3018 81.8062 30.0951 81.6792 29.916C81.5555 29.7337 81.3993 29.5905 81.2104 29.4863C81.0249 29.3822 80.8068 29.3301 80.5562 29.3301C80.3088 29.3301 80.0907 29.3822 79.9019 29.4863C79.7163 29.5905 79.5601 29.7337 79.4331 29.916C79.3094 30.0951 79.2166 30.3018 79.1548 30.5361C79.0929 30.7673 79.062 31.013 79.062 31.2734Z" fill="black"/>
<path d="M86.5815 31.6445H84.8481L84.8384 30.9219H86.2544C86.5343 30.9219 86.7671 30.8942 86.9526 30.8389C87.1414 30.7835 87.283 30.7005 87.3774 30.5898C87.4718 30.4792 87.519 30.3424 87.519 30.1797C87.519 30.0527 87.4914 29.9421 87.436 29.8477C87.384 29.75 87.3042 29.6702 87.1968 29.6084C87.0894 29.5433 86.9559 29.4961 86.7964 29.4668C86.6401 29.4342 86.4562 29.418 86.2446 29.418H85.0874V33.9688H84.1841V28.6855H86.2446C86.5799 28.6855 86.881 28.7148 87.1479 28.7734C87.4181 28.832 87.6476 28.9215 87.8364 29.042C88.0285 29.1592 88.175 29.3089 88.2759 29.4912C88.3768 29.6735 88.4272 29.8883 88.4272 30.1357C88.4272 30.2952 88.3947 30.4466 88.3296 30.5898C88.2645 30.7331 88.1685 30.86 88.0415 30.9707C87.9146 31.0814 87.7583 31.1725 87.5728 31.2441C87.3872 31.3125 87.174 31.3564 86.9331 31.376L86.5815 31.6445ZM86.5815 33.9688H84.521L84.9702 33.2363H86.5815C86.8322 33.2363 87.0405 33.2054 87.2065 33.1436C87.3726 33.0785 87.4963 32.9873 87.5776 32.8701C87.6623 32.7497 87.7046 32.6064 87.7046 32.4404C87.7046 32.2744 87.6623 32.1328 87.5776 32.0156C87.4963 31.8952 87.3726 31.804 87.2065 31.7422C87.0405 31.6771 86.8322 31.6445 86.5815 31.6445H85.2095L85.2192 30.9219H86.9331L87.2603 31.1953C87.55 31.2181 87.7957 31.2897 87.9976 31.4102C88.1994 31.5306 88.3524 31.6836 88.4565 31.8691C88.5607 32.0514 88.6128 32.25 88.6128 32.4648C88.6128 32.7122 88.5656 32.9303 88.4712 33.1191C88.38 33.3079 88.2466 33.4658 88.0708 33.5928C87.895 33.7165 87.6818 33.8109 87.4312 33.876C87.1805 33.9378 86.8973 33.9688 86.5815 33.9688Z" fill="black"/>
<path d="M92.939 33.0654V30.3457C92.939 30.1374 92.8966 29.9567 92.812 29.8037C92.7306 29.6475 92.6069 29.527 92.4409 29.4424C92.2749 29.3577 92.0698 29.3154 91.8257 29.3154C91.5978 29.3154 91.3976 29.3545 91.2251 29.4326C91.0558 29.5107 90.9224 29.6133 90.8247 29.7402C90.7303 29.8672 90.6831 30.0039 90.6831 30.1504H89.7798C89.7798 29.9616 89.8286 29.7744 89.9263 29.5889C90.0239 29.4033 90.1639 29.2357 90.3462 29.0859C90.5317 28.9329 90.7531 28.8125 91.0103 28.7246C91.2707 28.6335 91.5604 28.5879 91.8794 28.5879C92.2635 28.5879 92.6021 28.653 92.895 28.7832C93.1912 28.9134 93.4224 29.1104 93.5884 29.374C93.7576 29.6344 93.8423 29.9616 93.8423 30.3555V32.8164C93.8423 32.9922 93.8569 33.1794 93.8862 33.3779C93.9188 33.5765 93.966 33.7474 94.0278 33.8906V33.9688H93.0854C93.0399 33.8646 93.0041 33.7262 92.978 33.5537C92.952 33.3779 92.939 33.2152 92.939 33.0654ZM93.0952 30.7656L93.105 31.4004H92.1919C91.9347 31.4004 91.7052 31.4215 91.5034 31.4639C91.3016 31.5029 91.1323 31.5632 90.9956 31.6445C90.8589 31.7259 90.7547 31.8285 90.6831 31.9521C90.6115 32.0726 90.5757 32.2142 90.5757 32.377C90.5757 32.543 90.6131 32.6943 90.688 32.8311C90.7629 32.9678 90.8752 33.0768 91.0249 33.1582C91.1779 33.2363 91.3651 33.2754 91.5864 33.2754C91.8631 33.2754 92.1073 33.2168 92.3188 33.0996C92.5304 32.9824 92.6981 32.8392 92.8218 32.6699C92.9487 32.5007 93.0171 32.3363 93.0269 32.1768L93.4126 32.6113C93.3898 32.748 93.328 32.8994 93.2271 33.0654C93.1261 33.2314 92.991 33.391 92.8218 33.5439C92.6558 33.6937 92.4572 33.819 92.2261 33.9199C91.9982 34.0176 91.741 34.0664 91.4546 34.0664C91.0965 34.0664 90.7824 33.9964 90.5122 33.8564C90.2453 33.7165 90.0369 33.5293 89.8872 33.2949C89.7407 33.0573 89.6675 32.792 89.6675 32.499C89.6675 32.2158 89.7228 31.9668 89.8335 31.752C89.9442 31.5339 90.1037 31.3532 90.312 31.21C90.5203 31.0635 90.771 30.9528 91.064 30.8779C91.3569 30.8031 91.6841 30.7656 92.0454 30.7656H93.0952Z" fill="black"/>
<path d="M100.224 31.6445H98.4907L98.481 30.9219H99.897C100.177 30.9219 100.41 30.8942 100.595 30.8389C100.784 30.7835 100.926 30.7005 101.02 30.5898C101.114 30.4792 101.162 30.3424 101.162 30.1797C101.162 30.0527 101.134 29.9421 101.079 29.8477C101.027 29.75 100.947 29.6702 100.839 29.6084C100.732 29.5433 100.598 29.4961 100.439 29.4668C100.283 29.4342 100.099 29.418 99.8872 29.418H98.73V33.9688H97.8267V28.6855H99.8872C100.222 28.6855 100.524 28.7148 100.791 28.7734C101.061 28.832 101.29 28.9215 101.479 29.042C101.671 29.1592 101.818 29.3089 101.918 29.4912C102.019 29.6735 102.07 29.8883 102.07 30.1357C102.07 30.2952 102.037 30.4466 101.972 30.5898C101.907 30.7331 101.811 30.86 101.684 30.9707C101.557 31.0814 101.401 31.1725 101.215 31.2441C101.03 31.3125 100.817 31.3564 100.576 31.376L100.224 31.6445ZM100.224 33.9688H98.1636L98.6128 33.2363H100.224C100.475 33.2363 100.683 33.2054 100.849 33.1436C101.015 33.0785 101.139 32.9873 101.22 32.8701C101.305 32.7497 101.347 32.6064 101.347 32.4404C101.347 32.2744 101.305 32.1328 101.22 32.0156C101.139 31.8952 101.015 31.804 100.849 31.7422C100.683 31.6771 100.475 31.6445 100.224 31.6445H98.8521L98.8618 30.9219H100.576L100.903 31.1953C101.193 31.2181 101.438 31.2897 101.64 31.4102C101.842 31.5306 101.995 31.6836 102.099 31.8691C102.203 32.0514 102.255 32.25 102.255 32.4648C102.255 32.7122 102.208 32.9303 102.114 33.1191C102.023 33.3079 101.889 33.4658 101.713 33.5928C101.538 33.7165 101.324 33.8109 101.074 33.876C100.823 33.9378 100.54 33.9688 100.224 33.9688Z" fill="black"/>
<path d="M106.582 33.0654V30.3457C106.582 30.1374 106.539 29.9567 106.455 29.8037C106.373 29.6475 106.25 29.527 106.083 29.4424C105.917 29.3577 105.712 29.3154 105.468 29.3154C105.24 29.3154 105.04 29.3545 104.868 29.4326C104.698 29.5107 104.565 29.6133 104.467 29.7402C104.373 29.8672 104.326 30.0039 104.326 30.1504H103.422C103.422 29.9616 103.471 29.7744 103.569 29.5889C103.667 29.4033 103.806 29.2357 103.989 29.0859C104.174 28.9329 104.396 28.8125 104.653 28.7246C104.913 28.6335 105.203 28.5879 105.522 28.5879C105.906 28.5879 106.245 28.653 106.538 28.7832C106.834 28.9134 107.065 29.1104 107.231 29.374C107.4 29.6344 107.485 29.9616 107.485 30.3555V32.8164C107.485 32.9922 107.5 33.1794 107.529 33.3779C107.561 33.5765 107.609 33.7474 107.67 33.8906V33.9688H106.728C106.682 33.8646 106.647 33.7262 106.621 33.5537C106.595 33.3779 106.582 33.2152 106.582 33.0654ZM106.738 30.7656L106.748 31.4004H105.834C105.577 31.4004 105.348 31.4215 105.146 31.4639C104.944 31.5029 104.775 31.5632 104.638 31.6445C104.501 31.7259 104.397 31.8285 104.326 31.9521C104.254 32.0726 104.218 32.2142 104.218 32.377C104.218 32.543 104.256 32.6943 104.331 32.8311C104.405 32.9678 104.518 33.0768 104.667 33.1582C104.82 33.2363 105.008 33.2754 105.229 33.2754C105.506 33.2754 105.75 33.2168 105.961 33.0996C106.173 32.9824 106.341 32.8392 106.464 32.6699C106.591 32.5007 106.66 32.3363 106.669 32.1768L107.055 32.6113C107.032 32.748 106.971 32.8994 106.87 33.0654C106.769 33.2314 106.634 33.391 106.464 33.5439C106.298 33.6937 106.1 33.819 105.869 33.9199C105.641 34.0176 105.384 34.0664 105.097 34.0664C104.739 34.0664 104.425 33.9964 104.155 33.8564C103.888 33.7165 103.68 33.5293 103.53 33.2949C103.383 33.0573 103.31 32.792 103.31 32.499C103.31 32.2158 103.365 31.9668 103.476 31.752C103.587 31.5339 103.746 31.3532 103.955 31.21C104.163 31.0635 104.414 30.9528 104.707 30.8779C105 30.8031 105.327 30.7656 105.688 30.7656H106.738Z" fill="black"/>
<path d="M108.984 28.6855H109.887V33.2266H111.821V28.6855H112.729V33.2266H114.658V28.6855H115.561V33.9688H108.984V28.6855Z" fill="black"/>
<path d="M117.978 32.5381L120.415 28.6855H121.323V33.9688H120.415V30.1162L117.978 33.9688H117.08V28.6855H117.978V32.5381Z" fill="black"/>
<path d="M123.383 28.6855L124.541 30.6094L125.712 28.6855H126.772L125.043 31.293L126.826 33.9688H125.781L124.56 31.9863L123.339 33.9688H122.29L124.067 31.293L122.343 28.6855H123.383Z" fill="black"/>
<path d="M131.118 29.7012V36H130.209V28.6855H131.04L131.118 29.7012ZM134.677 31.2832V31.3857C134.677 31.7699 134.632 32.1263 134.541 32.4551C134.449 32.7806 134.316 33.0638 134.14 33.3047C133.968 33.5456 133.754 33.7327 133.5 33.8662C133.247 33.9997 132.955 34.0664 132.626 34.0664C132.291 34.0664 131.995 34.0111 131.738 33.9004C131.481 33.7897 131.263 33.6286 131.083 33.417C130.904 33.2054 130.761 32.9515 130.654 32.6553C130.55 32.359 130.478 32.0254 130.439 31.6543V31.1074C130.478 30.7168 130.551 30.3669 130.659 30.0576C130.766 29.7484 130.908 29.4847 131.083 29.2666C131.263 29.0452 131.479 28.8776 131.733 28.7637C131.987 28.6465 132.28 28.5879 132.612 28.5879C132.944 28.5879 133.238 28.653 133.496 28.7832C133.753 28.9102 133.969 29.0924 134.145 29.3301C134.321 29.5677 134.453 29.8525 134.541 30.1846C134.632 30.5133 134.677 30.8796 134.677 31.2832ZM133.769 31.3857V31.2832C133.769 31.0195 133.741 30.7721 133.686 30.541C133.631 30.3066 133.544 30.1016 133.427 29.9258C133.313 29.7467 133.167 29.6068 132.988 29.5059C132.809 29.4017 132.596 29.3496 132.348 29.3496C132.12 29.3496 131.922 29.3887 131.752 29.4668C131.586 29.5449 131.445 29.6507 131.328 29.7842C131.21 29.9144 131.114 30.0641 131.04 30.2334C130.968 30.3994 130.914 30.5719 130.878 30.751V32.0156C130.944 32.2435 131.035 32.4583 131.152 32.6602C131.269 32.8587 131.425 33.0199 131.621 33.1436C131.816 33.264 132.062 33.3242 132.358 33.3242C132.602 33.3242 132.812 33.2738 132.988 33.1729C133.167 33.0687 133.313 32.9271 133.427 32.748C133.544 32.569 133.631 32.3639 133.686 32.1328C133.741 31.8984 133.769 31.6494 133.769 31.3857Z" fill="black"/>
<path d="M138.022 34.0664C137.654 34.0664 137.32 34.0046 137.021 33.8809C136.725 33.7539 136.469 33.5765 136.254 33.3486C136.043 33.1208 135.88 32.8506 135.766 32.5381C135.652 32.2256 135.595 31.8838 135.595 31.5127V31.3076C135.595 30.8779 135.659 30.4954 135.786 30.1602C135.913 29.8216 136.085 29.5352 136.303 29.3008C136.521 29.0664 136.769 28.889 137.045 28.7686C137.322 28.6481 137.609 28.5879 137.905 28.5879C138.282 28.5879 138.608 28.653 138.881 28.7832C139.158 28.9134 139.384 29.0957 139.56 29.3301C139.736 29.5612 139.866 29.8346 139.951 30.1504C140.035 30.4629 140.078 30.8047 140.078 31.1758V31.5811H136.132V30.8438H139.174V30.7754C139.161 30.541 139.112 30.3132 139.028 30.0918C138.946 29.8704 138.816 29.6882 138.637 29.5449C138.458 29.4017 138.214 29.3301 137.905 29.3301C137.7 29.3301 137.511 29.374 137.338 29.4619C137.166 29.5465 137.018 29.6735 136.894 29.8428C136.77 30.012 136.674 30.2188 136.606 30.4629C136.538 30.707 136.503 30.9886 136.503 31.3076V31.5127C136.503 31.7633 136.538 31.9993 136.606 32.2207C136.678 32.4388 136.78 32.6309 136.914 32.7969C137.05 32.9629 137.215 33.0931 137.407 33.1875C137.602 33.2819 137.823 33.3291 138.071 33.3291C138.39 33.3291 138.66 33.264 138.881 33.1338C139.103 33.0036 139.296 32.8294 139.462 32.6113L140.009 33.0459C139.895 33.2184 139.75 33.3828 139.575 33.5391C139.399 33.6953 139.182 33.8223 138.925 33.9199C138.671 34.0176 138.37 34.0664 138.022 34.0664Z" fill="black"/>
<path d="M141.21 28.6855H142.114V33.2266H144.047V28.6855H144.956V33.2266H146.884V28.6855H147.788V33.9688H141.21V28.6855Z" fill="black"/>
<path d="M151.42 34.0664C151.053 34.0664 150.719 34.0046 150.419 33.8809C150.123 33.7539 149.868 33.5765 149.653 33.3486C149.441 33.1208 149.278 32.8506 149.165 32.5381C149.051 32.2256 148.994 31.8838 148.994 31.5127V31.3076C148.994 30.8779 149.057 30.4954 149.184 30.1602C149.311 29.8216 149.484 29.5352 149.702 29.3008C149.92 29.0664 150.167 28.889 150.444 28.7686C150.721 28.6481 151.007 28.5879 151.303 28.5879C151.681 28.5879 152.006 28.653 152.28 28.7832C152.556 28.9134 152.783 29.0957 152.958 29.3301C153.134 29.5612 153.264 29.8346 153.349 30.1504C153.434 30.4629 153.476 30.8047 153.476 31.1758V31.5811H149.531V30.8438H152.573V30.7754C152.56 30.541 152.511 30.3132 152.426 30.0918C152.345 29.8704 152.215 29.6882 152.036 29.5449C151.857 29.4017 151.612 29.3301 151.303 29.3301C151.098 29.3301 150.909 29.374 150.737 29.4619C150.564 29.5465 150.416 29.6735 150.292 29.8428C150.169 30.012 150.073 30.2188 150.004 30.4629C149.936 30.707 149.902 30.9886 149.902 31.3076V31.5127C149.902 31.7633 149.936 31.9993 150.004 32.2207C150.076 32.4388 150.179 32.6309 150.312 32.7969C150.449 32.9629 150.613 33.0931 150.805 33.1875C151 33.2819 151.222 33.3291 151.469 33.3291C151.788 33.3291 152.058 33.264 152.28 33.1338C152.501 33.0036 152.695 32.8294 152.861 32.6113L153.408 33.0459C153.294 33.2184 153.149 33.3828 152.973 33.5391C152.797 33.6953 152.581 33.8223 152.324 33.9199C152.07 34.0176 151.769 34.0664 151.42 34.0664Z" fill="black"/>
<path d="M158.115 30.9756V31.708H155.322V30.9756H158.115ZM155.512 28.6855V33.9688H154.609V28.6855H155.512ZM158.847 28.6855V33.9688H157.939V28.6855H158.847Z" fill="black"/>
<path d="M161.279 32.5381L163.715 28.6855H164.624V33.9688H163.715V30.1162L161.279 33.9688H160.38V28.6855H161.279V32.5381Z" fill="black"/>
<path d="M167.05 32.5381L169.487 28.6855H170.395V33.9688H169.487V30.1162L167.05 33.9688H166.152V28.6855H167.05V32.5381ZM168.994 26.7715H169.726C169.726 27.0254 169.667 27.2516 169.55 27.4502C169.433 27.6455 169.265 27.7985 169.047 27.9092C168.829 28.0199 168.57 28.0752 168.271 28.0752C167.819 28.0752 167.46 27.9548 167.197 27.7139C166.936 27.4697 166.806 27.1556 166.806 26.7715H167.539C167.539 26.9635 167.594 27.1328 167.705 27.2793C167.815 27.4258 168.004 27.499 168.271 27.499C168.531 27.499 168.717 27.4258 168.828 27.2793C168.938 27.1328 168.994 26.9635 168.994 26.7715Z" fill="black"/>
</svg>
